<mxfile host="app.diagrams.net" modified="2020-11-14T15:08:59.476Z" agent="5.0 (Windows NT 10.0; Win64; x64) AppleWebKit/537.36 (KHTML, like Gecko) Chrome/86.0.4240.193 Safari/537.36 Edg/86.0.622.68" etag="tCFS7toT4xRj2U0PkfhF" version="13.9.7" type="github">
  <diagram id="rhBj85TDizttnjXZA-Mc" name="Page-1">
    <mxGraphModel dx="1447" dy="6320" grid="1" gridSize="10" guides="1" tooltips="1" connect="1" arrows="1" fold="1" page="1" pageScale="1" pageWidth="850" pageHeight="1100" math="0" shadow="0">
      <root>
        <mxCell id="0" />
        <mxCell id="1" parent="0" />
        <mxCell id="7m__Mg6k2uHtXESetWc8-2" value="Online Course Reservation System&lt;br&gt;&lt;br&gt;0" style="ellipse;whiteSpace=wrap;html=1;aspect=fixed;" parent="1" vertex="1">
          <mxGeometry x="270" y="-5390" width="110" height="110" as="geometry" />
        </mxCell>
        <mxCell id="t6uuNEVtREWtRLAAfhPt-8" style="edgeStyle=orthogonalEdgeStyle;rounded=0;orthogonalLoop=1;jettySize=auto;html=1;entryX=0.5;entryY=0;entryDx=0;entryDy=0;" edge="1" parent="1" source="t6uuNEVtREWtRLAAfhPt-2" target="7m__Mg6k2uHtXESetWc8-2">
          <mxGeometry relative="1" as="geometry" />
        </mxCell>
        <mxCell id="t6uuNEVtREWtRLAAfhPt-2" value="Student" style="html=1;" vertex="1" parent="1">
          <mxGeometry x="50" y="-5460" width="110" height="50" as="geometry" />
        </mxCell>
        <mxCell id="t6uuNEVtREWtRLAAfhPt-6" style="edgeStyle=orthogonalEdgeStyle;rounded=0;orthogonalLoop=1;jettySize=auto;html=1;exitX=1;exitY=0.5;exitDx=0;exitDy=0;entryX=0.5;entryY=1;entryDx=0;entryDy=0;" edge="1" parent="1" source="t6uuNEVtREWtRLAAfhPt-3" target="7m__Mg6k2uHtXESetWc8-2">
          <mxGeometry relative="1" as="geometry" />
        </mxCell>
        <mxCell id="t6uuNEVtREWtRLAAfhPt-3" value="Faculty Member" style="html=1;" vertex="1" parent="1">
          <mxGeometry x="50" y="-5250" width="110" height="50" as="geometry" />
        </mxCell>
        <mxCell id="t6uuNEVtREWtRLAAfhPt-7" style="edgeStyle=orthogonalEdgeStyle;rounded=0;orthogonalLoop=1;jettySize=auto;html=1;exitX=0;exitY=0.5;exitDx=0;exitDy=0;" edge="1" parent="1" source="t6uuNEVtREWtRLAAfhPt-5" target="7m__Mg6k2uHtXESetWc8-2">
          <mxGeometry relative="1" as="geometry" />
        </mxCell>
        <mxCell id="t6uuNEVtREWtRLAAfhPt-5" value="Administrator" style="html=1;" vertex="1" parent="1">
          <mxGeometry x="500" y="-5360" width="110" height="50" as="geometry" />
        </mxCell>
      </root>
    </mxGraphModel>
  </diagram>
</mxfile>
